<?xml version="1.0" encoding="UTF-8"?>
<svg id="Calque_1" data-name="Calque 1" xmlns="http://www.w3.org/2000/svg" viewBox="0 0 1254 1254">
  <defs>
    <style>
      .cls-1 {
        fill: #fff;
      }
    </style>
  </defs>
  <rect x="9.38" y="9.38" width="1235.24" height="1235.24" rx="200" ry="200"/>
  <g>
    <path class="cls-1" d="M450.05,771.68c32.81,18.85,68.25,26.91,105.42,26.99l117.89.24c17.96.04,31.22,16.91,31.26,33.57.05,16.5-13.44,33.3-31.38,33.34l-122.77.28c-89.07.2-176.84-51.35-228.45-122.37-48.31-66.47-68.36-150.32-56.37-231.46,9.66-65.37,40-124.77,87.55-170.41,35.07-33.66,77.35-58.78,124.16-72.5,22.14-6.49,43.92-10.76,67.2-10.75l158.7.09c18.64.01,32.23,17.17,31.97,34.15-.27,17.61-14.26,33.49-32.9,33.49l-148.82.02c-37.66,0-73.15,8.51-106,26.83-29.09,16.23-54.2,38.04-74.14,64.89-60.33,81.25-57.9,196.33-3.31,279.49,20.2,30.77,47.84,55.64,79.97,74.1Z"/>
    <path class="cls-1" d="M790.42,854.14c-15.88,8.7-34.65,3.98-43.82-11.75-9.07-15.56-4.07-36.02,11.57-45.55,39.83-24.27,49.88-73.91,20.46-110.04-16.14-19.83-39.8-29.72-65.4-29.78l-158.59-.39c-40.1-.1-75.45-26.71-92.33-59.74-19.68-38.5-16.18-82.29,8.34-116.61,19.18-26.86,50.11-46.65,83.89-46.69l231.72-.25c18.28-.02,31.69,17.84,31.27,34.26-.46,17.83-14.61,33.39-33.32,33.43l-226.64.4c-24.01.04-41.48,21.89-41.21,44.12.29,23.63,18.86,43.11,43.17,43.21l159.82.65c43.87.18,84.87,24.02,111.73,57.08,54.41,66.97,34.99,166.22-40.67,207.66Z"/>
    <path class="cls-1" d="M247.25,766.75c33.69,77.27,93.47,143.48,165.2,187.17,88.84,54.12,195.03,73.38,296.99,51.88,146.84-30.96,264.34-138.56,304.42-283.92,20.62-74.79,19.37-153.39-6.66-226.79-19.01-53.62-52.78-103.65-98.09-139.43-15.03,14.6-36.87,17.71-54.89,7.48s-26.92-29.87-21.9-50.66c4.42-18.31,20.55-33.12,41.08-34.81,14.56-1.2,28.55,5.35,37.52,15.76,10.07,11.69,13.41,26.66,9.89,41.84,79.48,62.04,124.26,158.53,130.16,257.53,9.36,157.27-71.59,306.86-207.66,385.71-55.6,32.22-118.11,52.48-182.89,57.54-126.67,9.9-249.69-36.43-340.07-124.89-40.21-39.35-73.1-85.39-95.28-137.08-2.79-6.49,2.49-12.54,7.96-14.15s11.61.83,14.22,6.8Z"/>
  </g>
</svg>